<svg width="30" height="30" viewBox="0 0 30 30" fill="none" xmlns="http://www.w3.org/2000/svg">
<path d="M23.1625 11.25L16.25 4.3375C16.0744 4.16163 15.8361 4.06272 15.5875 4.0625H10C9.08832 4.0625 8.21398 4.42466 7.56932 5.06932C6.92466 5.71398 6.5625 6.58832 6.5625 7.5V22.5C6.5625 23.4117 6.92466 24.286 7.56932 24.9307C8.21398 25.5753 9.08832 25.9375 10 25.9375H20C20.9117 25.9375 21.786 25.5753 22.4307 24.9307C23.0753 24.286 23.4375 23.4117 23.4375 22.5V11.875C23.4277 11.6395 23.3295 11.4164 23.1625 11.25ZM16.5625 7.2625L20.2375 10.9375H16.5625V7.2625ZM20 24.0625H10C9.5856 24.0625 9.18817 23.8979 8.89515 23.6049C8.60212 23.3118 8.4375 22.9144 8.4375 22.5V7.5C8.4375 7.0856 8.60212 6.68817 8.89515 6.39515C9.18817 6.10212 9.5856 5.9375 10 5.9375H14.6875V11.875C14.6907 12.1226 14.7905 12.3592 14.9657 12.5343C15.1408 12.7095 15.3774 12.8093 15.625 12.8125H21.5625V22.5C21.5625 22.9144 21.3979 23.3118 21.1049 23.6049C20.8118 23.8979 20.4144 24.0625 20 24.0625Z" fill="#17215D"/>
<path d="M16.8624 18.5625C16.0938 18.0802 15.5153 17.3472 15.2249 16.4875C15.494 15.6833 15.5753 14.828 15.4624 13.9875C15.4263 13.7757 15.3231 13.5812 15.1679 13.4327C15.0127 13.2842 14.8138 13.1897 14.6006 13.163C14.3875 13.1364 14.1714 13.1791 13.9844 13.2848C13.7974 13.3905 13.6495 13.5536 13.5624 13.75C13.4201 14.7605 13.5274 15.7905 13.8749 16.75C13.4001 17.8591 12.8703 18.9438 12.2874 20C11.3999 20.5 10.1874 21.25 9.99989 22.1125C9.84989 22.8125 11.1624 24.6125 13.3999 20.7125C14.3948 20.3432 15.4139 20.0425 16.4499 19.8125C17.2157 20.2504 18.07 20.5109 18.9499 20.575C19.1519 20.5802 19.351 20.5256 19.5221 20.4181C19.6932 20.3105 19.8286 20.1547 19.9114 19.9704C19.9943 19.7861 20.0207 19.5813 19.9875 19.382C19.9544 19.1827 19.863 18.9976 19.7249 18.85C19.1999 18.3125 17.6374 18.4625 16.8624 18.5625ZM10.8874 22.3125C11.2377 21.713 11.7003 21.1868 12.2499 20.7625C11.3999 22.1125 10.8874 22.35 10.8874 22.325V22.3125ZM14.5374 13.8C14.8624 13.8 14.8374 15.2375 14.6124 15.625C14.4429 15.0355 14.4172 14.414 14.5374 13.8125V13.8ZM13.4499 19.9C13.8734 19.1273 14.241 18.3252 14.5499 17.5C14.881 18.1162 15.3416 18.6535 15.8999 19.075C15.0612 19.2851 14.2417 19.5652 13.4499 19.9125V19.9ZM19.3249 19.675C19.3249 19.675 19.0999 19.95 17.6624 19.325C19.2249 19.225 19.4874 19.5875 19.3249 19.6875V19.675Z" fill="#17215D"/>
</svg>
